<?xml version="1.0" standalone="no"?>
<!DOCTYPE svg PUBLIC "-//W3C//DTD SVG 20010904//EN"
 "http://www.w3.org/TR/2001/REC-SVG-20010904/DTD/svg10.dtd">
<svg version="1.0" xmlns="http://www.w3.org/2000/svg"
 width="506.000000pt" height="768.000000pt" viewBox="0 0 506.000000 768.000000"
 preserveAspectRatio="xMidYMid meet">
<metadata>
Created by potrace 1.16, written by Peter Selinger 2001-2019
</metadata>
<g transform="translate(0.000000,768.000000) scale(0.100000,-0.100000)"
fill="#000000" stroke="none">
<path d="M658 7059 c-77 -12 -95 -36 -30 -41 l37 -3 3 -409 c1 -293 -1 -413
-9 -422 -6 -8 -24 -14 -40 -14 -38 0 -37 -15 2 -29 64 -22 151 -10 171 25 6 9
18 7 50 -9 36 -19 60 -22 153 -22 96 0 116 3 160 24 28 14 59 24 70 23 13 -1
16 1 7 6 -9 6 -4 16 19 38 65 60 69 80 69 374 l0 265 -30 52 c-32 56 -91 103
-162 130 -65 24 -210 22 -274 -3 -43 -18 -53 -19 -71 -7 -33 22 -75 30 -125
22z m405 -120 c21 -5 52 -23 70 -39 l32 -28 3 -265 3 -264 -28 -33 c-35 -42
-79 -60 -148 -60 -69 0 -113 18 -148 59 l-27 33 0 251 c0 236 1 254 20 285 13
22 26 32 35 28 8 -3 14 0 12 6 -3 15 57 37 103 37 19 1 52 -4 73 -10z"/>
<path d="M1724 7060 c-17 -4 -36 -10 -42 -14 -17 -11 -15 -29 3 -22 8 3 26 1
40 -4 l24 -9 1 -341 c1 -387 -1 -380 82 -457 67 -61 142 -85 253 -81 109 4
195 39 251 101 64 70 64 71 64 441 0 241 3 337 11 342 7 4 25 7 41 6 45 -1 29
21 -26 36 -62 18 -111 8 -148 -28 l-28 -28 0 -332 0 -332 -37 -38 c-80 -79
-240 -70 -299 17 -18 26 -19 52 -21 357 -3 275 -5 333 -18 353 -9 13 -20 23
-26 23 -6 0 -8 3 -6 8 6 9 -80 12 -119 2z"/>
<path d="M3060 7060 c-25 -6 -70 -23 -101 -39 -32 -16 -59 -29 -60 -28 -2 1
-3 0 -2 -2 1 -2 -13 -22 -31 -45 -18 -22 -37 -50 -42 -61 -5 -11 -11 -175 -14
-365 l-5 -345 -39 -5 c-36 -5 -38 -6 -21 -20 10 -8 46 -16 86 -18 65 -4 70 -3
99 26 l30 30 0 324 c0 305 1 325 20 356 58 94 221 108 301 26 l34 -35 5 -340
5 -341 28 -24 c22 -19 40 -24 81 -24 55 0 116 16 116 30 0 5 -17 10 -37 12
l-38 3 -5 345 c-5 332 -6 347 -27 386 -61 115 -235 184 -383 154z"/>
<path d="M4075 7057 c-223 -59 -306 -257 -167 -400 l36 -37 -36 -30 c-20 -17
-46 -46 -58 -65 -12 -19 -25 -33 -28 -31 -4 2 -8 -28 -10 -66 -3 -59 1 -78 23
-124 30 -60 86 -112 161 -146 41 -20 66 -23 159 -23 100 0 116 3 171 28 60 28
125 84 137 119 3 9 -3 28 -14 42 -30 38 -79 35 -126 -8 -58 -51 -95 -66 -165
-66 -197 0 -271 189 -109 279 31 17 66 25 128 30 67 5 88 11 99 26 38 52 -8
95 -103 95 -115 0 -183 51 -183 137 0 39 5 50 34 78 60 56 169 70 246 30 37
-19 77 -19 114 0 15 8 31 13 35 10 4 -2 8 1 8 8 0 7 8 29 17 49 11 26 13 39 5
44 -7 4 -16 -1 -21 -10 -13 -22 -41 -20 -115 9 -76 31 -170 39 -238 22z"/>
<path d="M1090 5785 c0 -69 3 -85 15 -85 10 0 15 10 15 30 0 40 25 40 48 0 9
-16 25 -30 35 -30 16 0 16 2 2 30 -14 28 -14 32 0 46 22 22 19 60 -7 78 -12 9
-42 16 -65 16 l-43 0 0 -85z"/>
<path d="M1664 5857 c-3 -8 -4 -45 -2 -83 2 -53 6 -69 18 -69 11 0 15 12 15
48 0 26 2 47 5 47 3 0 20 -23 38 -50 49 -76 63 -68 60 33 -2 65 -6 82 -18 82
-11 0 -15 -12 -14 -47 0 -27 -1 -48 -2 -48 -1 0 -18 23 -38 50 -37 51 -53 60
-62 37z"/>
<path d="M2990 5785 c0 -69 3 -85 15 -85 10 0 15 10 15 30 0 23 5 30 19 30 11
0 23 -12 31 -30 8 -18 20 -30 31 -30 23 0 23 3 4 40 -13 25 -13 29 0 34 9 3
15 18 15 35 0 39 -32 61 -87 61 l-43 0 0 -85z"/>
<path d="M3280 5785 l0 -85 43 0 c23 0 53 7 65 16 23 16 30 48 12 59 -5 3 -7
20 -3 37 8 40 -15 58 -74 58 l-43 0 0 -85z"/>
<path d="M3830 5785 c0 -69 3 -85 15 -85 10 0 15 10 15 30 0 40 29 40 52 0 9
-17 24 -30 33 -30 18 0 18 2 3 35 -9 19 -9 28 0 37 7 7 12 24 12 39 0 37 -33
59 -87 59 l-43 0 0 -85z"/>
<path d="M3145 5202 c-22 -16 -103 -83 -179 -150 -77 -66 -144 -118 -150 -115
-6 3 -8 2 -3 -2 12 -13 -24 -45 -52 -46 -20 0 -22 -2 -9 -7 14 -6 10 -15 -28
-55 -24 -26 -49 -45 -54 -42 -6 4 -7 12 -3 18 3 7 -4 3 -17 -8 l-23 -20 7 20
c6 16 5 17 -5 8 -10 -10 -9 -16 1 -28 7 -8 10 -19 6 -22 -4 -4 -11 -1 -16 7
-8 13 -10 12 -10 -2 0 -10 -3 -18 -6 -18 -4 0 -13 8 -20 18 -11 16 -13 15 -23
-10 -5 -15 -17 -25 -25 -24 -26 4 -31 16 -7 16 12 0 19 4 16 10 -4 6 -11 7
-17 4 -6 -4 -8 1 -4 14 4 11 3 23 -2 26 -6 3 -9 -2 -8 -12 0 -9 -4 -16 -10
-15 -5 1 -9 -12 -8 -29 2 -22 -1 -27 -9 -19 -18 18 -31 13 -16 -6 12 -15 10
-15 -8 1 -14 12 -29 16 -40 11 -17 -7 -17 -8 2 -15 13 -6 15 -9 5 -9 -13 -1
-13 -2 0 -11 8 -5 12 -11 9 -14 -8 -8 -26 8 -33 31 -6 18 -2 24 19 29 14 3 35
4 46 1 16 -4 18 -3 8 9 -6 7 -15 11 -20 8 -5 -3 -9 0 -9 5 0 17 -32 13 -46 -6
-11 -15 -14 -15 -14 -3 -1 10 -4 9 -10 -5 -7 -17 -9 -17 -9 -2 -1 19 -9 21
-31 7 -13 -8 -12 -10 3 -10 12 0 17 -8 17 -27 0 -21 -3 -24 -9 -13 -6 8 -7 18
-5 22 3 4 -2 8 -10 8 -19 0 -20 -11 -3 -30 10 -12 9 -12 -5 -1 -13 10 -18 10
-18 2 0 -7 -4 -9 -10 -6 -5 3 -10 11 -10 16 0 6 5 7 10 4 6 -3 10 -2 10 2 0 5
-18 9 -40 9 -22 0 -35 -3 -28 -7 7 -4 15 -6 19 -3 4 2 5 -6 1 -18 -5 -21 -6
-21 -13 -2 -6 18 -8 17 -17 -6 -5 -14 -6 -27 -2 -30 4 -3 2 -10 -4 -16 -9 -8
-15 -5 -23 13 -6 12 -7 21 -2 17 5 -3 9 2 9 10 0 8 -5 18 -12 22 -6 4 -8 3 -4
-4 8 -13 -29 -26 -46 -16 -8 5 -6 10 8 15 11 5 3 6 -20 2 -28 -4 -37 -3 -32 6
6 10 -5 15 -26 12 -4 0 -13 9 -19 22 -11 20 -11 21 4 8 10 -7 17 -9 17 -3 0 5
-11 17 -24 25 -18 12 -26 13 -36 4 -10 -10 -12 -8 -6 8 5 14 4 17 -4 9 -6 -6
-8 -18 -4 -28 5 -14 9 -14 23 -4 14 12 15 11 2 -4 -7 -10 -15 -18 -17 -18 -1
0 -11 8 -20 18 -17 16 -18 16 -11 0 3 -10 2 -18 -3 -18 -6 0 -10 5 -10 10 0 6
-5 10 -10 10 -6 0 -2 -12 7 -27 10 -15 12 -24 6 -20 -7 5 -13 4 -13 -1 0 -6
-10 -8 -22 -4 -20 5 -21 6 -3 12 12 4 15 9 7 14 -6 4 -17 -2 -24 -14 -13 -20
-42 -27 -52 -12 -7 12 5 52 16 52 14 0 52 39 45 46 -3 4 -2 14 2 23 7 13 4 16
-19 16 -20 0 -26 -4 -22 -15 4 -12 2 -13 -9 -4 -12 9 -44 10 -84 2 -6 -1 -9
-17 -8 -37 2 -20 0 -30 -3 -23 -3 6 -10 12 -15 12 -6 0 -7 -4 -4 -10 3 -6 -1
-7 -9 -4 -9 3 -16 10 -16 14 0 4 -11 8 -25 8 -15 0 -25 -6 -25 -15 0 -10 -5
-11 -18 -4 -11 6 -24 6 -33 0 -11 -7 -11 -9 4 -9 11 0 15 -4 11 -11 -5 -9 1
-10 20 -5 21 5 27 3 23 -6 -2 -7 -9 -12 -14 -11 -5 1 -9 -11 -9 -27 0 -22 4
-27 18 -25 10 2 18 0 18 -6 0 -5 -10 -9 -21 -9 -19 0 -20 -2 -8 -17 12 -15 12
-16 -3 -10 -13 4 -15 2 -11 -10 4 -11 2 -14 -8 -11 -8 3 -20 -4 -27 -16 -9
-14 -12 -16 -8 -3 8 27 -3 20 -14 -9 -9 -22 -13 -24 -25 -14 -12 10 -15 9 -15
-4 0 -10 -4 -15 -9 -12 -5 4 -15 -7 -23 -24 -7 -16 -19 -30 -27 -30 -10 0 -11
-3 -2 -14 9 -10 9 -16 1 -21 -6 -4 -10 -14 -8 -23 2 -10 -3 -22 -12 -29 -13
-11 -13 -12 3 -13 29 0 19 -18 -15 -25 -24 -6 -35 -3 -45 11 -12 17 -13 16
-13 -5 0 -20 -1 -21 -16 -7 -21 21 -23 20 -17 -6 3 -19 1 -17 -13 7 -11 19
-18 52 -18 87 -1 49 -3 57 -18 52 -9 -2 -19 0 -23 6 -4 6 -13 9 -21 6 -8 -3
-13 0 -11 7 1 7 -6 11 -15 9 -22 -4 -25 30 -5 50 12 11 12 16 1 26 -20 18 -67
-58 -59 -96 6 -27 6 -27 -7 -4 -11 17 -16 20 -26 10 -22 -22 -16 -5 21 67 8
17 25 73 36 125 38 170 52 216 73 246 12 17 17 21 13 9 -14 -39 -45 -150 -45
-160 0 -5 5 -3 10 5 7 11 8 5 4 -20 -4 -19 -7 -37 -6 -40 1 -75 2 -79 21 -77
17 1 19 10 18 102 0 80 5 120 27 198 15 54 25 104 23 110 -6 19 -65 -71 -112
-168 -40 -85 -104 -266 -109 -310 -2 -11 -9 -31 -16 -45 -9 -16 -15 -68 -17
-142 -3 -111 -2 -118 20 -135 13 -10 38 -44 56 -76 27 -48 31 -60 20 -73 -10
-12 -10 -15 2 -12 8 2 13 -4 13 -15 -2 -15 1 -16 15 -5 14 11 14 11 -1 -7 -17
-20 -18 -23 -18 -50 0 -8 -4 -15 -9 -15 -5 0 -7 9 -4 20 4 17 0 20 -26 20 -29
0 -30 -1 -20 -26 5 -15 7 -29 4 -32 -3 -3 -5 -1 -5 5 0 6 -11 13 -25 15 -27 6
-32 -1 -13 -20 10 -10 10 -15 1 -20 -8 -5 -9 -13 -3 -22 13 -21 12 -27 -6 -34
-12 -5 -14 -1 -9 17 5 18 2 16 -14 -8 -23 -33 -45 -101 -37 -114 3 -5 -2 -15
-11 -22 -15 -12 -16 -12 -10 4 4 10 3 16 -2 12 -6 -3 -9 -13 -9 -23 0 -9 -3
-25 -7 -36 -7 -16 -6 -17 13 -7 18 10 22 9 22 -4 0 -8 -6 -14 -12 -13 -15 3
-16 -74 -3 -106 6 -15 5 -17 -5 -11 -10 6 -12 4 -7 -8 3 -10 2 -17 -3 -17 -6
0 -10 -4 -10 -10 0 -5 8 -7 18 -4 13 4 12 2 -3 -7 -19 -13 -19 -13 5 -20 24
-7 24 -7 3 -8 -16 -1 -23 -7 -23 -21 0 -11 4 -20 10 -20 5 0 7 -7 3 -16 -4
-10 4 -25 21 -41 14 -13 24 -28 22 -32 -3 -4 1 -8 9 -8 11 0 12 4 4 13 -8 10
-5 14 13 18 52 11 65 1 44 -33 -7 -11 -5 -13 8 -8 10 4 20 7 22 7 3 0 2 5 -2
12 -4 6 -3 8 3 5 6 -4 9 -25 7 -48 -4 -37 -2 -40 11 -29 13 10 18 11 28 1 9
-10 8 -11 -6 -5 -14 5 -16 3 -10 -12 7 -18 6 -18 -20 -2 -25 17 -27 17 -36 0
-6 -9 -11 -13 -11 -8 0 5 -7 3 -16 -4 -8 -8 -14 -9 -13 -4 4 21 -2 30 -20 31
-31 3 -71 34 -72 57 -1 17 -2 17 -6 4 -2 -10 -9 -18 -14 -18 -5 0 -9 -7 -9
-15 0 -9 -7 -18 -15 -21 -8 -4 -15 -10 -15 -15 0 -14 28 -11 33 4 2 6 2 -10 1
-38 -2 -27 -8 -51 -14 -53 -6 -2 1 -13 15 -24 14 -11 23 -24 20 -29 -11 -17
-14 -50 -4 -44 5 4 9 -1 9 -10 0 -9 -4 -14 -8 -11 -5 3 -9 -1 -9 -9 0 -8 4
-15 9 -15 5 0 6 -10 3 -21 -5 -14 -3 -19 3 -15 7 4 10 -4 7 -23 -2 -20 3 -35
15 -46 10 -9 16 -23 13 -30 -2 -8 7 -26 21 -40 14 -14 25 -28 25 -31 -2 -12
93 -114 101 -109 15 9 41 -7 36 -22 -4 -10 -2 -12 11 -4 13 7 21 3 36 -15 10
-13 27 -24 38 -24 11 0 17 -4 14 -10 -3 -5 -2 -10 4 -10 5 0 13 -9 16 -20 3
-11 11 -20 16 -20 5 0 18 -9 29 -20 16 -16 25 -18 44 -10 16 6 27 6 31 0 4 -6
-3 -10 -14 -10 -12 0 -21 -5 -21 -11 0 -6 6 -9 14 -6 8 3 17 1 20 -6 5 -9 7
-9 11 -1 8 16 65 -12 65 -32 0 -8 8 -14 18 -14 9 0 13 4 7 8 -12 8 -13 37 -2
48 4 4 7 0 7 -9 0 -11 5 -14 17 -10 13 5 15 2 10 -13 -7 -18 -6 -18 7 -1 7 9
19 17 26 17 7 0 10 7 6 15 -3 8 0 15 7 16 7 0 24 2 39 4 18 2 31 -2 38 -13 5
-9 10 -14 10 -9 0 4 13 1 30 -8 16 -8 35 -14 42 -13 7 2 12 -3 10 -9 -1 -7 3
-13 9 -13 6 0 9 -7 5 -15 -4 -12 -2 -13 14 -2 11 6 20 17 20 24 0 15 9 16 30
3 8 -5 11 -12 7 -17 -5 -4 -13 -1 -18 7 -9 12 -10 12 -5 -3 3 -10 6 -21 6 -23
0 -2 9 -4 21 -4 12 0 23 -8 26 -19 6 -23 39 -34 65 -20 21 11 23 25 6 32 -8 4
-7 6 3 6 9 1 19 -8 22 -19 3 -11 12 -20 21 -20 9 0 16 -4 16 -10 0 -5 -5 -10
-12 -10 -6 0 -3 -6 7 -14 20 -14 55 -10 55 6 0 6 -7 8 -15 5 -20 -8 -28 9 -16
30 6 10 11 13 11 6 0 -6 8 -14 19 -18 22 -7 53 4 45 16 -3 5 4 9 14 9 15 0 19
5 15 20 -7 26 25 40 41 18 16 -21 53 -31 62 -17 5 8 3 9 -5 4 -7 -4 -20 1 -32
14 -25 27 -24 34 4 21 19 -10 19 -8 -5 13 -24 23 -32 49 -29 102 1 24 50 -47
131 -190 51 -92 59 -101 97 -113 29 -10 40 -18 36 -28 -8 -21 35 -77 84 -110
32 -21 51 -45 73 -90 44 -91 145 -162 435 -306 77 -38 141 -71 142 -72 2 -2
-11 -3 -27 -3 -20 0 -26 3 -18 9 22 14 -3 9 -38 -8 -19 -9 -34 -20 -34 -25 0
-11 14 -12 24 -2 4 5 17 8 29 9 12 1 27 2 32 4 20 5 56 0 52 -7 -3 -5 -28 -8
-56 -8 -28 0 -51 -3 -51 -7 0 -5 6 -8 13 -8 6 -1 1 -7 -12 -14 l-24 -13 27 -7
c15 -4 36 -4 45 -1 10 3 29 1 42 -5 21 -9 19 -9 -11 -4 -23 3 -30 2 -21 -4 16
-12 1 -23 -25 -18 -10 2 -24 -2 -31 -9 -10 -10 -4 -13 27 -11 21 0 36 4 34 7
-2 4 3 9 11 13 8 3 15 1 15 -5 0 -9 17 -7 59 9 9 4 12 1 7 -7 -6 -9 -1 -10 18
-5 36 9 33 -5 -4 -17 -16 -6 -30 -15 -30 -20 0 -5 -5 -9 -11 -9 -8 0 -7 5 1
15 7 9 10 19 6 23 -4 4 -13 -1 -20 -10 -7 -10 -23 -21 -36 -26 -15 -6 13 -8
79 -7 87 1 98 0 74 -10 -15 -7 -33 -10 -39 -8 -7 2 -15 -1 -19 -7 -5 -8 5 -10
36 -5 24 3 55 2 69 -3 l25 -10 -24 -9 c-21 -8 -22 -11 -7 -16 10 -4 26 -2 36
3 10 6 28 10 40 10 13 0 19 4 14 11 -7 12 13 10 76 -5 14 -4 19 -4 13 0 -18 8
-16 31 2 37 10 5 16 -4 21 -29 8 -42 14 -46 78 -51 86 -6 148 -23 136 -38 -8
-9 -5 -11 13 -8 17 3 26 -2 35 -21 6 -14 16 -26 22 -26 6 0 5 9 -2 25 -6 14
-15 25 -20 25 -4 0 -8 10 -8 21 0 17 -5 20 -21 16 l-21 -6 20 19 c25 24 62 16
57 -11 -5 -25 11 -24 25 1 11 21 40 28 40 10 0 -5 -6 -10 -14 -10 -19 0 -27
-13 -17 -28 4 -8 15 -10 26 -6 18 7 18 8 -1 15 -18 7 -18 8 3 8 12 1 30 4 40
7 15 5 15 4 3 -5 -21 -14 2 -37 27 -26 10 5 23 7 30 6 6 -1 14 8 18 19 4 14
15 20 36 20 31 0 39 -17 13 -27 -9 -3 -20 0 -25 8 -8 13 -10 12 -13 -11 0 -6
-8 -15 -16 -20 -13 -8 -12 -10 3 -10 9 0 17 5 17 10 0 6 7 10 15 10 23 0 18
-19 -7 -24 -13 -3 -32 -7 -43 -9 -14 -3 -12 -5 8 -6 16 0 26 -5 22 -10 -3 -5
0 -13 6 -17 8 -5 9 -3 4 6 -6 10 -2 12 16 7 23 -6 23 -5 5 8 -23 17 -1 21 24
5 10 -6 20 -4 33 8 15 13 23 14 50 4 l32 -11 -23 18 -22 19 69 4 c38 2 67 0
65 -3 -14 -23 117 -42 138 -21 6 6 -2 8 -19 6 l-28 -4 30 10 c20 6 31 6 36 -2
4 -6 12 -7 20 -3 9 6 11 3 6 -8 -3 -10 -3 -17 2 -17 5 0 11 9 14 20 3 11 11
20 17 20 9 0 10 -3 1 -14 -9 -10 -8 -16 4 -26 19 -16 17 -18 39 54 19 63 32
64 40 3 3 -24 0 -37 -7 -37 -7 0 -6 -4 3 -10 8 -5 24 -10 35 -10 15 0 17 3 7
9 -21 13 -15 25 21 38 45 16 46 16 40 -9 -4 -20 -3 -21 7 -5 8 12 18 15 36 11
14 -4 24 -2 24 5 0 6 7 8 17 4 15 -6 15 -7 -3 -14 -18 -7 -18 -8 3 -14 19 -6
20 -9 8 -21 -7 -8 -20 -14 -27 -14 -8 0 -6 -5 5 -11 9 -6 15 -14 12 -20 -4 -5
2 -6 11 -2 13 5 16 2 12 -8 -4 -10 1 -15 12 -15 23 0 14 23 -11 31 -16 5 -18
10 -8 21 15 19 36 18 47 -2 5 -9 15 -14 23 -12 8 3 24 1 37 -3 15 -6 31 -5 45
2 12 7 19 8 15 4 -4 -4 2 -16 14 -26 21 -19 21 -19 0 -19 -11 0 -23 6 -25 13
-3 7 -6 5 -6 -5 -1 -14 7 -18 30 -18 23 0 30 4 26 15 -4 8 -2 17 3 20 6 4 10
93 10 215 l0 209 -67 20 c-38 11 -84 23 -103 26 -47 10 -176 53 -225 75 -100
45 -412 51 -618 11 -60 -11 -112 -23 -116 -26 -8 -4 -60 -14 -273 -52 l-87
-15 -40 33 c-30 24 -38 35 -30 45 19 23 -3 60 -109 179 -96 107 -112 120 -144
123 -23 2 -39 9 -43 20 -54 135 -65 177 -66 254 -1 51 -7 97 -18 122 -9 23
-16 57 -15 76 3 47 3 47 13 32 7 -11 9 -11 14 1 4 11 -1 14 -19 12 -21 -2 -30
9 -70 81 -50 91 -62 122 -93 231 -20 68 -23 72 -53 75 -43 4 -48 26 -6 30 27
2 34 8 36 28 2 20 1 22 -8 10 -9 -12 -10 -7 -8 22 4 37 4 37 -19 23 -13 -9
-23 -11 -23 -5 0 5 9 15 20 22 30 19 25 23 -33 25 -77 2 -123 25 -157 80 -17
26 -30 52 -30 58 0 5 -10 16 -21 23 -18 12 -21 20 -16 60 4 41 12 53 54 90 31
28 61 45 86 49 39 6 49 18 20 26 -17 4 -17 5 -1 6 10 0 32 10 49 20 39 24 55
19 69 -24 9 -26 20 -37 48 -46 20 -7 41 -12 46 -11 5 2 6 -4 3 -13 -4 -10 0
-15 13 -15 15 0 20 -10 25 -64 5 -42 3 -71 -5 -86 -6 -12 -9 -25 -5 -28 3 -3
9 4 12 17 5 20 11 22 38 18 42 -7 196 16 277 41 105 33 461 102 728 142 179
26 230 39 230 56 0 18 -14 17 -197 0 -218 -21 -569 -38 -643 -31 -94 9 -130
15 -130 23 0 4 -18 6 -41 4 -47 -5 -68 8 -44 28 13 11 14 10 9 -4 -5 -13 0
-16 27 -15 28 0 31 2 14 9 -11 5 -14 9 -7 9 7 1 10 6 7 11 -4 6 -11 8 -16 4
-6 -3 -5 3 3 15 15 24 24 27 31 9 2 -7 7 -10 11 -7 4 4 0 14 -9 23 -15 14 -15
16 -1 16 9 0 16 -4 16 -10 0 -5 5 -10 12 -10 17 0 -20 37 -43 43 -23 6 -37
-12 -18 -24 11 -7 9 -9 -6 -9 -26 0 -51 36 -30 44 8 3 15 0 15 -6 0 -7 5 -6
15 2 8 6 18 9 23 6 5 -3 7 6 4 19 -2 13 -13 27 -23 30 -11 4 -17 11 -14 16 4
5 -1 9 -9 9 -9 0 -16 8 -16 19 0 11 -5 21 -11 23 -9 3 -9 9 0 25 15 29 -11 58
-39 43 -26 -14 -30 -13 -23 6 6 15 -27 54 -47 54 -5 0 -10 5 -10 11 0 5 4 7
10 4 5 -3 20 1 34 10 23 15 25 15 31 -4 3 -12 3 -31 -1 -43 -7 -23 -6 -23 15
-4 24 22 28 46 7 46 -8 0 -17 7 -20 16 -3 8 -10 12 -16 9 -16 -10 -47 3 -47
20 0 11 5 12 20 4 10 -6 34 -8 53 -4 30 5 33 8 24 25 -7 12 -7 20 -1 20 5 0
11 -5 13 -11 2 -7 10 -10 18 -7 9 3 2 16 -24 42 -21 20 -35 40 -32 43 3 3 13
-4 23 -15 22 -26 54 -32 60 -12 4 13 3 13 -6 0 -9 -13 -11 -13 -11 2 0 9 -3
25 -7 35 -5 15 -2 14 19 -5 14 -13 33 -25 43 -26 9 -1 21 -9 26 -17 7 -11 9
-9 9 8 0 24 -21 44 -28 25 -4 -12 -32 -5 -32 9 0 4 7 6 15 3 8 -4 15 -3 15 1
0 11 -49 55 -61 55 -5 0 -8 3 -8 8 4 22 -3 34 -15 29 -8 -3 -17 2 -21 11 -6
15 -8 15 -15 -3 l-9 -20 -1 20 c-2 11 -2 23 -1 28 1 10 -7 9 -29 -3 -13 -7
-21 -7 -25 0 -4 6 -1 9 6 8 6 -2 13 10 16 25 2 19 0 26 -7 22 -6 -3 -8 -10 -5
-15 3 -5 1 -11 -5 -15 -5 -3 -10 1 -10 9 0 21 -38 59 -50 51 -6 -4 -10 1 -10
11 0 13 -3 14 -15 4 -12 -10 -15 -10 -15 1 0 8 -6 6 -16 -7 -15 -17 -15 -17 0
8 18 31 20 42 7 34 -15 -10 -41 5 -41 23 0 9 -6 23 -12 30 -11 11 -10 13 5 8
25 -9 21 8 -5 22 -21 11 -21 11 7 5 16 -3 27 -2 23 2 -4 4 -3 13 3 20 7 8 7
14 -1 19 -5 3 -10 13 -10 21 0 9 5 12 12 8 6 -4 8 -3 5 4 -4 5 -17 8 -29 4
-12 -3 -17 -7 -10 -10 6 -2 12 -10 12 -18 0 -8 5 -14 11 -14 5 0 7 -4 4 -10
-10 -16 -35 -12 -29 5 4 8 1 21 -5 29 -6 7 -7 17 -3 21 4 5 -1 5 -10 2 -14 -5
-12 3 8 46 14 29 30 65 36 81 6 16 23 52 38 80 21 39 34 52 54 54 26 3 34 16
16 27 -16 10 -13 17 50 95 48 59 60 81 58 105 -4 42 -41 45 -93 7z m-295 -503
c0 -26 -52 -109 -68 -109 -13 0 -14 -2 -4 -9 10 -6 2 -29 -33 -98 -25 -50 -45
-98 -45 -107 0 -10 -4 -14 -10 -11 -5 3 -10 1 -10 -5 0 -6 -4 -9 -9 -5 -6 3
-15 -3 -21 -12 -10 -15 -11 -14 -7 9 2 15 1 26 -2 25 -7 -2 -11 7 -11 24 0 5
4 7 10 4 6 -3 7 1 4 9 -3 9 4 27 15 42 12 15 21 36 21 47 0 11 3 17 6 14 12
-11 44 13 44 33 0 11 -4 20 -9 20 -5 0 -7 -10 -4 -22 4 -20 3 -21 -7 -5 -9 14
-4 27 24 71 20 29 36 57 36 61 0 5 7 16 15 25 16 18 65 16 65 -1z m-186 -431
c-3 -32 -2 -38 5 -23 9 18 10 18 10 -6 1 -15 -5 -57 -13 -95 -8 -38 -22 -115
-32 -171 -15 -88 -20 -103 -36 -103 -11 0 -16 5 -13 10 3 6 -4 10 -17 10 -16
0 -19 3 -10 9 11 7 10 10 -3 15 -9 3 -21 4 -26 0 -5 -3 -9 0 -9 5 0 6 -7 11
-15 11 -20 0 -20 46 0 93 8 19 12 37 9 40 -9 9 28 105 43 111 10 4 13 14 9 31
-4 15 -2 25 4 25 6 0 8 -5 5 -11 -4 -6 2 -5 13 2 12 7 18 17 16 21 -3 4 0 8 5
8 6 0 10 3 10 8 -6 34 3 52 25 52 22 0 24 -3 20 -42z m251 -19 c-3 -4 -1 -10
5 -14 12 -7 4 -25 -11 -25 -6 0 -7 5 -3 12 5 7 3 8 -6 3 -10 -6 -10 -11 3 -20
17 -12 24 -51 8 -41 -5 3 -12 -1 -15 -10 -4 -11 -1 -14 12 -10 9 3 24 1 32 -5
13 -10 13 -10 -1 -6 -9 3 -16 -1 -16 -8 0 -19 31 -13 39 8 4 10 13 15 19 12 7
-5 5 -13 -7 -26 -9 -10 -20 -16 -24 -14 -4 3 -11 -3 -15 -13 -6 -16 -7 -16
-17 2 -8 14 -12 16 -19 5 -4 -7 -4 -18 0 -24 4 -5 11 -19 15 -29 5 -16 4 -17
-9 -6 -12 10 -15 10 -15 -3 0 -17 24 -40 33 -30 4 3 7 -5 7 -18 1 -29 35 -73
50 -64 5 3 10 -1 10 -9 0 -9 6 -16 14 -16 8 0 17 -6 19 -12 4 -8 6 -7 6 3 1 9
7 21 14 27 10 8 13 6 14 -9 1 -10 -2 -19 -8 -19 -5 0 -9 -4 -9 -10 0 -5 6 -10
13 -10 7 0 18 -9 25 -21 8 -12 19 -18 28 -15 9 3 12 2 9 -5 -4 -5 -15 -7 -25
-4 -10 3 -21 2 -24 -4 -3 -5 6 -12 19 -15 17 -4 25 -12 23 -24 -2 -12 3 -16
16 -14 18 3 18 2 5 -14 -13 -16 -12 -16 7 -6 12 6 24 8 28 4 4 -3 4 1 1 9 -4
10 0 16 10 16 12 0 15 -7 10 -26 -4 -18 -3 -22 4 -12 7 11 13 11 32 -4 l24
-17 -27 5 c-17 2 -28 0 -28 -7 0 -6 -4 -5 -9 3 -7 11 -28 14 -83 12 -40 -1
-80 -4 -89 -7 -12 -3 -16 3 -17 27 0 17 -2 33 -4 34 -2 2 -28 7 -58 10 -40 5
-51 4 -40 -4 11 -8 2 -9 -35 -5 -63 8 -70 14 -19 15 31 0 35 2 19 9 -12 4 -27
15 -34 24 -12 14 -9 16 24 16 l37 0 -4 195 c-5 171 -3 195 10 195 13 0 12 3
-3 13 -10 8 -15 19 -11 26 6 9 13 8 27 -5 10 -9 16 -20 14 -25z m-1056 -384
c63 -39 60 -45 -21 -41 -63 4 -70 2 -54 -9 10 -8 24 -11 32 -8 8 3 14 0 14 -6
0 -6 5 -11 11 -11 5 0 7 5 4 10 -3 6 -1 10 4 10 6 0 11 -10 11 -21 0 -18 2
-20 15 -9 13 11 13 15 3 21 -12 8 20 14 62 11 14 -1 30 15 30 30 0 4 -6 5 -14
2 -8 -3 -22 -1 -31 4 -16 8 -16 10 -1 15 9 4 16 1 16 -6 0 -8 3 -7 9 2 8 12
12 13 26 1 9 -7 13 -20 10 -28 -6 -15 11 -42 26 -42 5 0 9 5 9 10 0 6 -5 9
-11 8 -6 -2 -13 2 -16 8 -2 7 4 11 14 10 10 0 17 5 16 12 -2 6 6 12 18 12 15
0 19 -4 15 -16 -4 -10 -1 -14 6 -11 7 2 12 12 12 21 -1 11 2 14 10 7 6 -5 16
-10 21 -10 12 -1 14 -38 5 -66 -8 -21 1 -20 -217 -24 -93 -2 -150 8 -118 19
11 4 23 3 26 -2 3 -5 9 -2 12 7 4 9 3 13 -3 10 -6 -3 -10 -1 -10 4 0 6 -16 11
-35 11 -19 0 -35 5 -35 11 0 5 4 8 9 5 5 -3 14 1 21 9 6 7 18 11 26 8 12 -5
20 19 15 50 -2 13 19 7 58 -18z m-96 -438 c40 -19 88 -30 200 -48 l67 -11 0
-49 c0 -26 -4 -51 -10 -54 -16 -10 -11 -35 8 -36 10 0 12 -3 5 -6 -29 -11 -10
-21 23 -11 20 5 38 7 41 4 3 -3 -15 -10 -40 -17 -42 -10 -46 -14 -45 -41 1
-16 7 -32 14 -35 7 -3 18 -21 25 -41 6 -21 15 -42 20 -48 5 -6 0 -17 -11 -27
-11 -9 -20 -13 -20 -8 0 5 -9 13 -21 16 -16 6 -18 9 -8 22 8 8 9 17 3 21 -5 4
-10 16 -11 27 -7 55 -11 60 -51 73 -23 8 -42 18 -42 23 0 5 -5 9 -11 9 -7 0
-32 19 -57 42 -25 23 -38 39 -29 35 9 -3 19 -2 22 3 3 4 -1 11 -7 13 -8 3 -6
6 5 6 14 1 16 -4 11 -26 -4 -22 -3 -25 5 -13 9 13 11 13 11 -2 0 -30 16 -28
35 4 10 17 13 28 7 24 -7 -4 -20 -2 -29 3 -10 6 -15 11 -11 11 16 0 -80 80
-98 81 -15 1 -13 3 6 10 21 7 19 8 -13 4 -34 -3 -36 -2 -21 12 15 15 14 18 -8
35 -25 21 -22 21 35 -5z"/>
<path d="M3987 5180 c-56 -36 -139 -117 -194 -190 -63 -85 -155 -270 -150
-302 2 -17 -2 -29 -11 -33 -9 -3 -12 -13 -8 -28 4 -19 -3 -26 -49 -50 -29 -16
-56 -35 -59 -43 -9 -24 30 -54 72 -54 32 0 39 -5 54 -35 10 -19 15 -42 12 -50
-4 -10 0 -15 15 -15 12 0 49 -28 90 -70 39 -38 77 -70 86 -70 8 0 15 -5 15
-10 0 -6 12 -16 27 -23 15 -6 35 -20 45 -29 23 -23 92 -33 229 -33 82 0 121 4
132 13 19 16 11 42 -13 42 -27 0 -50 11 -50 24 0 13 -64 56 -84 56 -18 0 -56
47 -56 70 0 22 -26 75 -46 91 -8 7 -24 30 -35 51 -11 22 -27 38 -37 38 -11 0
-5 8 18 22 19 13 37 26 38 30 2 5 11 8 20 8 10 0 42 9 72 21 30 11 122 43 203
71 150 51 184 69 86 44 -146 -36 -209 -49 -274 -55 -64 -5 -71 -9 -90 -37 -20
-30 -56 -54 -83 -54 -7 0 -11 4 -8 9 3 5 -1 12 -10 15 -10 4 -13 2 -8 -7 5 -8
2 -7 -9 2 -9 7 -17 23 -18 35 0 11 -3 15 -6 9 -2 -7 -9 -13 -14 -13 -6 0 -5 9
1 21 7 11 14 18 18 15 8 -8 42 46 36 56 -3 4 0 8 5 8 6 0 11 -4 11 -10 0 -5 7
-10 15 -10 8 0 15 7 15 15 0 10 -10 15 -29 15 -32 0 -49 15 -28 23 11 4 12 21
4 84 -6 56 -5 93 4 133 14 64 47 140 60 140 5 0 9 6 9 14 0 7 9 25 20 39 30
37 10 41 -43 7z"/>
<path d="M467 2860 c3 -24 -1 -54 -10 -79 -12 -28 -13 -41 -5 -43 16 -6 14
-68 -3 -79 -8 -5 -22 -6 -31 -3 -12 3 -24 -8 -42 -38 -14 -24 -27 -53 -29 -64
-1 -11 -17 -35 -35 -53 -18 -19 -31 -36 -29 -38 8 -7 95 29 115 47 12 11 25
20 29 20 4 0 32 25 60 56 37 39 54 67 58 93 3 20 8 44 10 54 6 31 -21 117 -45
142 -35 37 -49 32 -43 -15z"/>
<path d="M1470 2383 c-39 -24 -70 -68 -106 -151 -31 -69 -34 -86 -33 -159 1
-46 5 -83 9 -83 4 0 15 -20 24 -44 18 -46 75 -128 111 -158 22 -19 84 -43 91
-35 3 2 -9 28 -26 56 -18 31 -30 66 -30 87 0 50 -31 154 -46 154 -7 0 -21 11
-32 25 -11 14 -29 25 -41 25 -26 0 -28 31 -5 55 13 12 19 13 30 4 12 -10 12
-14 -2 -30 -14 -16 -14 -17 2 -15 9 1 22 9 28 17 6 8 20 13 31 11 15 -2 17 -1
6 7 -22 15 -21 157 2 199 23 43 19 55 -13 35z"/>
<path d="M880 1916 c-194 -54 -345 -196 -411 -386 -29 -85 -32 -246 -5 -335
62 -206 234 -367 441 -410 88 -19 152 -19 240 0 344 72 547 441 425 769 -64
171 -223 314 -400 361 -66 18 -227 18 -290 1z m275 -38 c192 -42 357 -213 400
-416 19 -86 19 -126 -1 -219 -28 -139 -104 -254 -217 -334 -103 -72 -177 -94
-317 -93 -98 0 -125 4 -180 25 -78 30 -153 76 -145 89 3 5 0 7 -8 4 -8 -3 -31
14 -54 39 -159 173 -197 417 -95 620 48 98 152 202 246 247 117 55 235 68 371
38z"/>
<path d="M933 1758 c-47 -10 -49 -14 -33 -88 22 -99 18 -92 53 -85 59 12 67
16 67 37 0 17 -5 20 -30 16 -36 -5 -40 9 -4 18 34 9 28 38 -9 42 -34 4 -36 22
-2 22 14 0 25 4 25 9 0 16 -12 41 -19 40 -3 -1 -25 -5 -48 -11z"/>
<path d="M1137 1722 c-23 -25 -21 -55 3 -77 11 -10 20 -22 20 -27 0 -15 -29
-8 -39 9 -7 14 -14 15 -32 7 l-24 -11 32 -31 c36 -37 65 -40 93 -12 26 26 25
58 -2 87 -17 19 -18 23 -6 23 9 0 18 -6 21 -12 3 -10 7 -10 20 0 20 17 13 36
-19 51 -34 15 -48 14 -67 -7z"/>
<path d="M702 1613 c-15 -15 -29 -27 -32 -26 -3 1 -6 -8 -7 -20 -1 -16 16 -35
63 -70 36 -27 67 -47 69 -45 19 22 55 85 55 98 0 23 -36 54 -55 47 -9 -4 -15
-1 -15 8 0 13 -29 35 -45 35 -3 0 -18 -12 -33 -27z"/>
<path d="M932 1353 l3 -88 93 -3 92 -3 0 91 c0 89 0 90 -24 90 -29 0 -44 -18
-23 -26 9 -3 15 -23 16 -59 l2 -55 -61 0 -60 0 0 55 c0 30 5 55 10 55 6 0 10
7 10 15 0 10 -10 15 -30 15 l-31 0 3 -87z"/>
<path d="M4976 495 c-3 -8 1 -20 8 -28 11 -11 11 -16 -2 -33 -13 -17 -14 -17
-8 -1 3 11 2 16 -4 12 -6 -3 -10 -15 -10 -26 0 -24 -18 -43 -42 -45 -20 -2
-24 11 -8 19 6 3 5 4 -2 3 -7 -1 -18 -18 -24 -37 -7 -19 -14 -33 -18 -31 -16
6 -37 1 -31 -8 3 -5 1 -10 -4 -10 -6 0 -11 4 -11 8 0 12 -79 18 -106 8 -27
-10 15 -53 66 -66 25 -6 53 -16 64 -21 12 -7 16 -7 11 0 -9 15 4 14 19 -2 7
-7 11 -17 9 -22 -2 -6 10 -16 27 -22 27 -10 30 -9 30 8 0 11 7 19 18 20 10 0
12 3 5 6 -20 8 -15 22 7 20 11 -1 20 -7 20 -15 0 -7 4 -11 9 -8 5 4 11 1 13
-5 6 -19 48 0 48 22 0 10 -6 19 -12 19 -10 0 -10 2 0 9 19 12 13 109 -7 121
-14 9 -14 11 -1 20 8 5 11 10 5 10 -12 0 -45 56 -45 76 0 18 -16 18 -24 -1z"/>
<path d="M4867 146 c5 -30 3 -37 -7 -31 -10 6 -12 4 -7 -8 4 -11 1 -17 -8 -17
-11 0 -12 5 -5 26 6 15 6 23 1 19 -6 -3 -14 3 -20 12 -9 16 -10 16 -11 -4 0
-13 5 -23 11 -23 5 0 7 -5 3 -11 -4 -7 -9 -7 -13 -2 -10 15 -66 8 -66 -8 -1
-8 -6 -13 -13 -11 -7 1 -12 -2 -12 -8 0 -5 -9 -10 -20 -10 -11 0 -20 5 -20 11
0 8 -4 8 -13 0 -11 -8 -14 -7 -14 7 0 9 5 20 11 24 7 5 4 8 -6 8 -10 0 -18 -5
-18 -11 0 -5 -4 -7 -10 -4 -11 7 -13 -5 -10 -42 2 -24 -15 -32 -23 -10 -4 10
-6 9 -6 0 -1 -7 -6 -13 -12 -13 -5 0 -7 4 -4 10 3 5 4 10 0 10 -3 0 -10 -10
-15 -22 -9 -23 -9 -23 -7 2 1 14 6 31 11 38 7 11 4 12 -13 3 -15 -8 -21 -9
-21 -1 0 6 -5 8 -10 5 -6 -4 -17 -3 -23 2 -7 4 -4 0 6 -9 19 -17 19 -18 1 -19
-11 -1 -22 -1 -26 -1 -3 1 -9 -5 -12 -14 -4 -12 -2 -12 14 -4 11 6 20 7 20 3
0 -13 -59 -33 -66 -22 -3 5 0 9 5 9 6 0 11 5 11 11 0 5 -5 7 -10 4 -6 -4 -18
-1 -26 6 -13 11 -18 10 -25 -4 -6 -9 -17 -17 -26 -17 -13 0 -13 -3 -3 -15 15
-18 50 -20 50 -2 0 8 3 9 8 1 5 -8 104 -12 325 -13 l317 -2 0 37 c0 21 -8 46
-17 57 -10 11 -13 17 -6 14 6 -4 15 -3 18 3 4 7 -2 10 -17 9 -12 -1 -32 -1
-43 0 l-20 2 20 9 c16 7 17 9 3 9 -20 1 -37 -21 -20 -27 16 -5 3 -32 -17 -32
-9 0 -12 3 -6 8 11 8 13 47 2 58 -4 4 -7 2 -7 -4 0 -7 -5 -12 -11 -12 -6 0 -8
7 -5 17 7 17 -9 33 -33 33 -12 0 -11 -3 2 -12 16 -12 15 -13 -7 -14 -15 -1
-27 5 -30 15 -2 9 -2 -2 1 -23z"/>
</g>
</svg>
